HIERARCHY
ROOT Hips
{
	OFFSET 0.00000 0.00000 0.00000
	CHANNELS 6 Xposition Yposition Zposition Zrotation Yrotation Xrotation 
	JOINT LHipJoint
	{
		OFFSET 0 0 0
		CHANNELS 3 Zrotation Yrotation Xrotation
		JOINT LeftHip
		{
			OFFSET 1.29432 -1.88279 0.59910
			CHANNELS 3 Zrotation Yrotation Xrotation
			JOINT LeftKnee
			{
				OFFSET 2.63039 -7.22694 0.00000
				CHANNELS 3 Zrotation Yrotation Xrotation
				JOINT LeftAnkle
				{
					OFFSET 2.70674 -7.43672 0.00000
					CHANNELS 3 Zrotation Yrotation Xrotation
					JOINT LeftToe
					{
						OFFSET 0.15066 -0.41394 2.09027
						CHANNELS 3 Zrotation Yrotation Xrotation
						End Site
						{
							OFFSET 0.00000 -0.00000 1.07518
						}
					}
				}
			}
		}
	}
	JOINT RHipJoint
	{
		OFFSET 0 0 0
		CHANNELS 3 Zrotation Yrotation Xrotation
		JOINT RightHip
		{
			OFFSET -1.37068 -1.88279 0.59910
			CHANNELS 3 Zrotation Yrotation Xrotation
			JOINT RightKnee
			{
				OFFSET -2.57023 -7.06166 0.00000
				CHANNELS 3 Zrotation Yrotation Xrotation
				JOINT RightAnkle
				{
					OFFSET -2.76461 -7.59570 0.00000
					CHANNELS 3 Zrotation Yrotation Xrotation
					JOINT RightToe
					{
						OFFSET -0.24175 -0.64785 2.19719
						CHANNELS 3 Zrotation Yrotation Xrotation
						End Site
						{
							OFFSET -0.00000 -0.00000 1.14803
						}
					}
				}
			}
		}
	}
	JOINT lowerback
	{
		OFFSET 0 0 0
		CHANNELS 3 Zrotation Yrotation Xrotation
		JOINT Chest
		{
			OFFSET -0.03138 2.03983 -0.23106
			CHANNELS 3 Zrotation Yrotation Xrotation
			JOINT Chest2
			{
				OFFSET -0.00325 2.06238 -0.06878
				CHANNELS 3 Zrotation Yrotation Xrotation
				JOINT lowerneck
				{
					OFFSET 0 0 0
					CHANNELS 3 Zrotation Yrotation Xrotation
					JOINT Neck
					{
						OFFSET -0.00002 1.75318 0.18090
						CHANNELS 3 Zrotation Yrotation Xrotation
						JOINT Head
						{
							OFFSET 0.08806 1.75856 -0.25387
							CHANNELS 3 Zrotation Yrotation Xrotation
							End Site
							{
								OFFSET 0.02554 1.78597 -0.10684
							}
						}
					}
				}
				JOINT LeftCollar
				{
					OFFSET 0 0 0
					CHANNELS 3 Zrotation Yrotation Xrotation
					JOINT LeftShoulder
					{
						OFFSET 3.09657 1.33597 -0.04414
CHANNELS 3 Zrotation Xrotation Yrotation
						JOINT LeftElbow
						{
OFFSET 0 -5.342980 -0.000000
CHANNELS 3 Zrotation Xrotation Yrotation
							JOINT LeftWrist
							{
OFFSET 0 -3.672620 -0.000000
CHANNELS 3 Zrotation Xrotation Yrotation
								JOINT lhand
								{
									OFFSET 0 0 0
CHANNELS 3 Zrotation Xrotation Yrotation
									JOINT LFingers
									{
OFFSET 0 -0.599300 -0.000000
CHANNELS 3 Zrotation Xrotation Yrotation
										End Site
										{
OFFSET 0 -0.483170 -0.000000
										}
									}
								}
								JOINT LThumb
								{
OFFSET 0 0.000000 0.000000
CHANNELS 3 Zrotation Xrotation Yrotation
									End Site
									{
OFFSET 0 -0.490550 0.490550
									}
								}
							}
						}
					}
				}
				JOINT RightCollar
				{
					OFFSET 0 0 0
					CHANNELS 3 Zrotation Yrotation Xrotation
					JOINT RightShoulder
					{
						OFFSET -3.16460 1.32273 -0.23382
CHANNELS 3 Zrotation Xrotation Yrotation
						JOINT RightElbow
						{
OFFSET 0 -5.549670 0.033480
CHANNELS 3 Zrotation Xrotation Yrotation
							JOINT RightWrist
							{
OFFSET 0 -3.694010 0.000000
CHANNELS 3 Zrotation Xrotation Yrotation
								JOINT rhand
								{
									OFFSET 0 0 0
CHANNELS 3 Zrotation Xrotation Yrotation
									JOINT RFingers
									{
OFFSET 0 -0.638110 0.000000
CHANNELS 3 Zrotation Xrotation Yrotation
										End Site
										{
OFFSET 0 -0.514460 0.000000
										}
									}
								}
								JOINT RThumb
								{
OFFSET 0 0.000000 0.000000
CHANNELS 3 Zrotation Xrotation Yrotation
									End Site
									{
OFFSET 0 -0.522320 0.522320
									}
								}
							}
						}
					}
				}
			}
		}
	}
}
MOTION
Frames: 10
Frame Time: 0.008333333333333333
6.999338 16.626536 1.368920 176.685292 -0.410785 209.579881 0.000000 0.000000 0.000000 -2.890350 0.656368 -31.877403 3.248296 11.086560 32.572324 1.732657 1.392389 -25.420339 2.430860 -9.709793 -28.042936 0.000000 0.000000 0.000000 -5.019650 6.145899 -30.380518 -4.396623 -12.670246 38.146388 -1.509966 -13.825462 -31.782297 -1.768313 8.365668 -23.830525 -2.671073 1.199645 21.248590 -1.310387 -0.827588 9.494074 0.322717 -1.180620 -1.573599 -3.631287 -2.876415 -9.522050 7.632040 -4.138864 -10.429144 3.035349 -2.505018 -1.453754 0.000000 0.000000 0.000000 21.026970 -18.490952 -58.916438 69.034524 -58.272196 41.948749 83.402767 102.728891 -58.546019 0.000000 0.000000 0.000000 -7.125000 0.000000 0.000000 172.733927 -63.995586 176.646241 0.000000 0.000000 0.000000 -18.376255 -20.788975 61.695366 -68.831311 -58.236834 -41.775950 -82.748107 -86.102375 -27.285244 0.000000 0.000000 0.000000 7.125000 0.000000 0.000000 -30.883216 -39.786005 -46.358635
7.008644 16.633517 1.372367 177.007573 -0.332077 209.769372 0.000000 0.000000 0.000000 -2.587841 0.691471 -31.898693 3.200891 11.013238 32.324623 1.707245 1.782191 -25.390831 2.401728 -9.656751 -27.872387 0.000000 0.000000 0.000000 -4.761969 6.648599 -30.444007 -4.359801 -12.624396 37.978185 -1.561910 -13.734835 -32.023618 -1.627336 8.039332 -22.835396 -2.564722 1.192262 20.905394 -1.310749 -0.763088 9.397253 0.244853 -1.129632 -1.508083 -3.701798 -2.873674 -9.398600 7.700177 -4.118048 -10.375418 3.073539 -2.488153 -1.455257 0.000000 0.000000 0.000000 21.299655 -18.549566 -58.829449 68.731962 -58.219735 41.691512 83.321177 102.418838 -58.549121 0.000000 0.000000 0.000000 -7.125000 0.000000 0.000000 172.735590 -64.043143 176.639267 0.000000 0.000000 0.000000 -18.257768 -20.956295 62.016813 -68.227332 -58.130206 -41.262766 -81.468058 -83.461964 -26.565626 0.000000 0.000000 0.000000 7.125000 0.000000 0.000000 -30.014061 -37.272164 -44.969391
7.013597 16.651773 1.368908 177.268292 -0.268769 209.931856 0.000000 0.000000 0.000000 -2.320425 0.614907 -31.836571 3.153548 10.939425 32.075952 1.711628 1.687128 -25.384489 2.117287 -9.086482 -26.080419 0.000000 0.000000 0.000000 -4.524059 7.019003 -30.444253 -4.308615 -12.559982 37.743097 -1.582456 -13.737360 -32.151458 -1.535707 7.822939 -22.177871 -2.423244 1.183203 20.571134 -1.335200 -0.699218 9.312329 0.122053 -1.078903 -1.433881 -3.737303 -2.885726 -9.297739 7.740336 -4.120179 -10.302544 3.094047 -2.482247 -1.446468 0.000000 0.000000 0.000000 21.403292 -18.639983 -58.863384 68.233181 -58.131113 41.267736 83.303513 102.233860 -58.841630 0.000000 0.000000 0.000000 -7.125000 0.000000 0.000000 173.198606 -64.012508 176.858895 0.000000 0.000000 0.000000 -18.106225 -21.098966 62.292147 -67.495501 -57.995858 -40.641822 -80.195317 -80.621319 -25.689437 0.000000 0.000000 0.000000 7.125000 0.000000 0.000000 -29.229508 -34.569669 -43.645639
7.015070 16.671895 1.361121 177.421987 -0.201920 209.991703 0.000000 0.000000 0.000000 -2.179433 0.506347 -31.606148 3.096590 10.849516 31.774307 1.719512 1.477831 -25.357501 1.831950 -8.506408 -24.263379 0.000000 0.000000 0.000000 -4.367314 7.294979 -30.324714 -4.253514 -12.490231 37.489175 -1.559616 -13.912327 -32.160681 -1.504229 7.746442 -21.946606 -2.306588 1.183471 20.326394 -1.391578 -0.644932 9.253366 -0.017433 -1.037737 -1.376216 -3.726426 -2.904951 -9.211430 7.739018 -4.135022 -10.190907 3.090073 -2.480992 -1.423409 0.000000 0.000000 0.000000 21.392929 -18.757176 -58.991610 67.583140 -58.012558 40.716009 83.142948 101.849377 -59.267069 0.000000 0.000000 0.000000 -7.125000 0.000000 0.000000 173.870369 -64.046073 177.166778 0.000000 0.000000 0.000000 -18.024579 -21.249355 62.527702 -66.707684 -57.846472 -39.974198 -80.417142 -81.048654 -25.080194 0.000000 0.000000 0.000000 7.125000 0.000000 0.000000 -29.670359 -34.370541 -44.387624
7.015364 16.684090 1.353359 177.506154 -0.138916 209.920249 0.000000 0.000000 0.000000 -2.140301 0.443143 -31.173365 3.022894 10.732016 31.381368 1.715452 1.419540 -25.306755 1.727177 -8.262697 -23.520676 0.000000 0.000000 0.000000 -4.270969 7.563720 -30.075329 -4.207371 -12.431266 37.275244 -1.512009 -14.220077 -32.132842 -1.503102 7.743284 -21.937325 -2.220393 1.192671 20.208135 -1.459353 -0.604581 9.223719 -0.147324 -1.009784 -1.350015 -3.701137 -2.919449 -9.124784 7.726554 -4.142650 -10.041257 3.078823 -2.473867 -1.388870 0.000000 0.000000 0.000000 21.355466 -18.877890 -59.141026 66.864930 -57.877455 40.107228 82.751953 101.114208 -59.604252 0.000000 0.000000 0.000000 -7.125000 0.000000 0.000000 174.399596 -64.225116 177.388091 0.000000 0.000000 0.000000 -18.083445 -21.434944 62.731035 -65.987402 -57.704797 -39.364707 -82.562118 -85.861693 -24.966167 0.000000 0.000000 0.000000 7.125000 0.000000 0.000000 -31.613936 -37.600123 -47.748546
7.018323 16.710799 1.343283 177.637299 -0.114686 209.841082 0.000000 0.000000 0.000000 -1.932467 0.207242 -30.670535 2.961960 10.633097 31.052306 1.788941 0.610438 -25.532901 1.313749 -7.247841 -20.457315 0.000000 0.000000 0.000000 -4.090484 7.888624 -29.724835 -4.142998 -12.348181 36.975209 -1.496655 -14.413117 -32.206251 -1.438169 7.581591 -21.450408 -2.096125 1.224098 20.093942 -1.510932 -0.529732 9.208445 -0.288785 -0.965003 -1.310351 -3.670590 -2.946638 -9.053214 7.809799 -4.164161 -9.883403 3.098495 -2.475227 -1.346408 0.000000 0.000000 0.000000 21.336514 -18.963054 -59.233787 66.199448 -57.747189 39.544023 82.489343 100.636088 -59.608730 0.000000 0.000000 0.000000 -7.125000 0.000000 0.000000 174.406873 -64.376253 177.371777 0.000000 0.000000 0.000000 -18.117911 -21.603353 62.781654 -65.422358 -57.589485 -38.887386 -82.983622 -86.865914 -24.935860 0.000000 0.000000 0.000000 7.125000 0.000000 0.000000 -32.042077 -38.253051 -48.458490
7.023027 16.717550 1.341860 177.457910 0.024337 209.771684 0.000000 0.000000 0.000000 -2.185830 -0.006608 -30.284731 2.889092 10.512895 30.654577 1.745823 1.253938 -25.464771 1.500944 -7.726131 -21.891257 0.000000 0.000000 0.000000 -4.319207 8.105923 -29.487808 -4.101793 -12.294614 36.782291 -1.469299 -14.637210 -32.235977 -1.404080 7.495264 -21.191193 -2.303396 1.288392 19.966910 -1.611009 -0.489775 9.249626 -0.287679 -0.953717 -1.202649 -3.720084 -2.976548 -9.031748 7.883274 -4.195511 -9.884026 3.132472 -2.489706 -1.345675 0.000000 0.000000 0.000000 21.281693 -19.168734 -59.303311 65.585675 -57.622785 39.025410 83.102090 101.111971 -59.356058 0.000000 0.000000 0.000000 -7.125000 0.000000 0.000000 174.011991 -64.057471 177.231390 0.000000 0.000000 0.000000 -18.122509 -21.835405 62.827178 -64.825144 -57.463706 -38.383618 -81.249251 -83.286649 -25.170379 0.000000 0.000000 0.000000 7.125000 0.000000 0.000000 -30.357539 -35.736366 -45.591986
7.028930 16.729497 1.339760 177.267531 0.160013 209.718140 0.000000 0.000000 0.000000 -2.390082 -0.312163 -29.936253 2.832592 10.418739 30.343938 1.712155 1.557002 -25.335440 1.468387 -7.648614 -21.656209 0.000000 0.000000 0.000000 -4.532425 8.202995 -29.284604 -4.049491 -12.225852 36.535853 -1.433425 -14.808970 -32.169131 -1.371607 7.411628 -20.940781 -2.579944 1.342857 19.901633 -1.678017 -0.467098 9.235366 -0.207313 -0.948862 -1.185164 -3.812252 -3.018098 -8.951925 7.906470 -4.242725 -9.953446 3.159831 -2.513611 -1.376754 0.000000 0.000000 0.000000 21.238951 -19.375185 -59.371682 64.783336 -57.453666 38.348633 83.563337 101.455590 -58.894372 0.000000 0.000000 0.000000 -7.125000 0.000000 0.000000 173.293305 -63.849958 176.929319 0.000000 0.000000 0.000000 -18.153892 -21.989334 62.972553 -64.225374 -57.333911 -37.878378 -80.145359 -81.089380 -25.274446 0.000000 0.000000 0.000000 7.125000 0.000000 0.000000 -29.328639 -34.111910 -43.824601
7.034456 16.740041 1.338770 177.216569 0.248595 209.666524 0.000000 0.000000 0.000000 -2.419649 -0.587025 -29.611781 2.784060 10.336764 30.074543 1.676525 1.797835 -25.175941 1.375917 -7.420404 -20.968234 0.000000 0.000000 0.000000 -4.573424 8.216849 -29.135478 -3.998322 -12.158173 36.293860 -1.406576 -14.851755 -32.043193 -1.326505 7.293169 -20.587155 -2.771358 1.376463 19.933100 -1.682632 -0.439967 9.126829 -0.107637 -0.930918 -1.317803 -3.966245 -3.071976 -8.806689 7.953690 -4.294452 -9.959466 3.206744 -2.533105 -1.395967 0.000000 0.000000 0.000000 21.202267 -19.471250 -59.416570 63.818851 -57.242664 37.536564 83.456629 101.335430 -58.329360 0.000000 0.000000 0.000000 -7.125000 0.000000 0.000000 172.388601 -63.993836 176.482481 0.000000 0.000000 0.000000 -18.202230 -22.008393 63.223037 -63.633917 -57.202428 -37.380828 -80.172739 -81.122988 -25.074300 0.000000 0.000000 0.000000 7.125000 0.000000 0.000000 -29.423711 -33.967736 -43.986872
7.037987 16.742447 1.340554 177.357683 0.281417 209.591247 0.000000 0.000000 0.000000 -2.277641 -0.720064 -29.303729 2.735225 10.253615 29.801959 1.624210 2.385151 -25.036904 1.459271 -7.632194 -21.603861 0.000000 0.000000 0.000000 -4.406740 8.211804 -29.026170 -3.960170 -12.107201 36.112234 -1.397784 -14.762943 -31.909494 -1.268124 7.137780 -20.124143 -2.792612 1.392218 20.064926 -1.628777 -0.391819 8.935418 -0.044574 -0.889846 -1.590620 -4.187519 -3.133494 -8.633363 8.089747 -4.337289 -9.798770 3.293411 -2.536135 -1.362230 0.000000 0.000000 0.000000 21.146775 -19.392828 -59.423603 62.810014 -57.012871 36.688968 82.730539 100.779907 -57.790418 0.000000 0.000000 0.000000 -7.125000 0.000000 0.000000 171.482043 -64.511785 175.962022 0.000000 0.000000 0.000000 -18.244608 -21.906360 63.540292 -63.026820 -57.063487 -36.870913 -81.103121 -82.788554 -24.581229 0.000000 0.000000 0.000000 7.125000 0.000000 0.000000 -30.384782 -34.926286 -45.668110
